# xmcd CD database file
#
# Track frame offsets:
#	150
#	6064
#	13196
#	21373
#	26325
#	31936
#	36982
#	40866
#	44739
#	48937
#	53950
#	58344
#	63717
#	69786
#	76655
#	80722
#
# Disc length: 1191 seconds
#
# Revision: 1
# Processed by: cddbd v1.5.1PL2 Copyright (c) Steve Scherf et al.
# Submitted via: CDex 1.51
#
DISCID=d104a510
DTITLE=Paul Pappas - Christmas Favorites for Solo Jazz Guitar
DYEAR=2004
DGENRE=Jazz
TTITLE0=Angels We Have Heard on High
TTITLE1=Away in a Manger
TTITLE2=Deck the Halls
TTITLE3=God Rest Ye Merry, Gentlemen
TTITLE4=Good King Wenceslas
TTITLE5=Hark! The Herald Angels Sing
TTITLE6=It Came Upon a Midnight Clear
TTITLE7=Jingle Bells
TTITLE8=O Come All Ye Faithful
TTITLE9=O Christmas Tree
TTITLE10=O Little Town of Bethlehem
TTITLE11=Silent Night
TTITLE12=We Three Kings
TTITLE13=The First Noël
TTITLE14=What Child Is This?
TTITLE15=We Wish You a Merry Christmas
EXTD=YEAR: 2004
EXTT0=
EXTT1=
EXTT2=
EXTT3=
EXTT4=
EXTT5=
EXTT6=
EXTT7=
EXTT8=
EXTT9=
EXTT10=
EXTT11=
EXTT12=
EXTT13=
EXTT14=
EXTT15=
PLAYORDER=
